<svg id="note" enable-background="new 0 0 300 300" height="512" viewBox="0 0 300 300" width="512" xmlns="http://www.w3.org/2000/svg"><g><circle cx="128" cy="154" fill="#e5efef" r="86"/><g><path d="m148 80h-82v-13.109c0-10.433 8.458-18.891 18.891-18.891h63.109z" fill="#efefd2"/><path d="m148 84h-82c-2.209 0-4-1.791-4-4v-13.109c0-12.621 10.27-22.891 22.891-22.891h63.109c2.209 0 4 1.791 4 4v32c0 2.209-1.791 4-4 4zm-78-8h74v-24h-59.109c-8.211 0-14.891 6.68-14.891 14.891z" fill="#4c241d"/></g><g><path d="m84.894 48.019c10.659.451 17.106 9.004 17.106 19.981v157.217c0 14.792 9.208 26.783 24 26.783h96l16-11.944v-169.41c0-12.507-10.139-22.646-22.646-22.646h-129.354z" fill="#fff"/><path d="m222 256h-96c-16.225 0-28-12.945-28-30.783v-157.217c0-9.369-5.211-15.643-13.275-15.984-2.16-.092-3.855-1.883-3.83-4.045.027-2.162 1.768-3.912 3.93-3.951l1.105-.02h129.424c14.693 0 26.646 11.953 26.646 26.646v169.41c0 1.262-.596 2.451-1.607 3.205l-16 11.943c-.692.517-1.53.796-2.393.796zm-121.109-204c3.242 4.145 5.109 9.668 5.109 16v157.217c0 13.414 8.225 22.783 20 22.783h94.672l13.328-9.949v-167.405c0-10.281-8.365-18.646-18.646-18.646z" fill="#4c241d"/></g><g><path d="m126 252h108.888c10.555 0 19.112-8.557 19.112-19.112v-8.888h-108v6c0 11.659-9.069 21.199-20.537 21.952z" fill="#efefd2"/><path d="m234.889 256h-108.889c-.115 0-.232-.006-.348-.016l-.537-.047c-2.082-.182-3.674-1.936-3.652-4.027.023-2.09 1.65-3.811 3.738-3.949 9.42-.619 16.799-8.508 16.799-17.961v-6c0-2.209 1.791-4 4-4h108c2.209 0 4 1.791 4 4v8.889c0 12.744-10.367 23.111-23.111 23.111zm-92.153-8h92.152c8.332 0 15.111-6.779 15.111-15.111v-4.889h-99.999v2c0 6.945-2.76 13.309-7.264 18z" fill="#4c241d"/></g><g fill="#4c241d"><path d="m59.656 201.656c-1.023 0-2.047-.391-2.828-1.172l-11.312-11.312c-1.562-1.562-1.562-4.094 0-5.656s4.094-1.562 5.656 0l11.312 11.312c1.562 1.562 1.562 4.094 0 5.656-.781.782-1.804 1.172-2.828 1.172z"/><path d="m48.344 201.656c-1.023 0-2.047-.391-2.828-1.172-1.562-1.562-1.562-4.094 0-5.656l11.312-11.312c1.562-1.562 4.094-1.562 5.656 0s1.562 4.094 0 5.656l-11.312 11.312c-.781.782-1.805 1.172-2.828 1.172z"/><circle cx="82" cy="180" r="4"/><circle cx="70" cy="136" r="4"/></g></g></svg>